<svg xmlns:x="http://ns.adobe.com/Extensibility/1.0/" xmlns:i="http://ns.adobe.com/AdobeIllustrator/10.0/" xmlns:graph="http://ns.adobe.com/Graphs/1.0/" xmlns="http://www.w3.org/2000/svg" xmlns:xlink="http://www.w3.org/1999/xlink" version="1.1" x="0px" y="0px" viewBox="0 0 32 40" style="enable-background:new 0 0 32 32;" xml:space="preserve"><metadata><sfw xmlns="http://ns.adobe.com/SaveForWeb/1.0/"><slices/><sliceSourceBounds height="16392" width="16538" bottomLeftOrigin="true" y="-8501" x="-7891"/></sfw></metadata><g><g><path d="M16,26C9.242,26,4,18.475,4,12C4,5.383,9.383,0,16,0s12,5.383,12,12C28,18.475,22.758,26,16,26z M16,2    C10.486,2,6,6.486,6,12c0,5.436,4.461,12,10,12s10-6.564,10-12C26,6.486,21.514,2,16,2z"/></g><g><polygon points="19.618,28 12.382,28 14.382,24 17.618,24   "/></g><g><rect x="15" y="27" width="2" height="5"/></g><g><path d="M10,12H8c0-4.411,3.589-8,8-8v2C12.691,6,10,8.691,10,12z"/></g></g><text x="0" y="47" fill="#000000" font-size="5px" font-weight="bold" font-family="'Helvetica Neue', Helvetica, Arial-Unicode, Arial, Sans-serif">Created by Icon Utopia</text><text x="0" y="52" fill="#000000" font-size="5px" font-weight="bold" font-family="'Helvetica Neue', Helvetica, Arial-Unicode, Arial, Sans-serif">from the Noun Project</text></svg>